<svg width="109" height="29" viewBox="0 0 109 29" fill="none" xmlns="http://www.w3.org/2000/svg">
<path d="M0.957031 9.39062C0.957031 8.23177 1.17839 7.14453 1.62109 6.12891C2.0638 5.11328 2.66276 4.22786 3.41797 3.47266C4.1862 2.70443 5.07812 2.09896 6.09375 1.65625C7.10938 1.21354 8.19661 0.992188 9.35547 0.992188H22.207V6.59766H9.35547C8.96484 6.59766 8.60026 6.66927 8.26172 6.8125C7.92318 6.95573 7.6237 7.15755 7.36328 7.41797C7.11589 7.66536 6.92057 7.95833 6.77734 8.29688C6.63411 8.63542 6.5625 9 6.5625 9.39062C6.5625 9.78125 6.63411 10.1523 6.77734 10.5039C6.92057 10.8424 7.11589 11.1419 7.36328 11.4023C7.6237 11.6497 7.92318 11.8451 8.26172 11.9883C8.60026 12.1315 8.96484 12.2031 9.35547 12.2031H14.9609C16.1198 12.2031 17.207 12.4245 18.2227 12.8672C19.2513 13.2969 20.1432 13.8958 20.8984 14.6641C21.6667 15.4193 22.2656 16.3112 22.6953 17.3398C23.138 18.3555 23.3594 19.4427 23.3594 20.6016C23.3594 21.7604 23.138 22.8477 22.6953 23.8633C22.2656 24.8789 21.6667 25.7708 20.8984 26.5391C20.1432 27.2943 19.2513 27.8932 18.2227 28.3359C17.207 28.7786 16.1198 29 14.9609 29H2.51953V23.3945H14.9609C15.3516 23.3945 15.7161 23.3229 16.0547 23.1797C16.3932 23.0365 16.6862 22.8411 16.9336 22.5938C17.194 22.3333 17.3958 22.0339 17.5391 21.6953C17.6823 21.3568 17.7539 20.9922 17.7539 20.6016C17.7539 20.2109 17.6823 19.8464 17.5391 19.5078C17.3958 19.1693 17.194 18.8763 16.9336 18.6289C16.6862 18.3685 16.3932 18.1667 16.0547 18.0234C15.7161 17.8802 15.3516 17.8086 14.9609 17.8086H9.35547C8.19661 17.8086 7.10938 17.5872 6.09375 17.1445C5.07812 16.7018 4.1862 16.1029 3.41797 15.3477C2.66276 14.5794 2.0638 13.6875 1.62109 12.6719C1.17839 11.6432 0.957031 10.5495 0.957031 9.39062ZM54.8438 29H49.2578V9C49.2578 8.60938 49.1797 8.24479 49.0234 7.90625C48.8802 7.56771 48.6784 7.27474 48.418 7.02734C48.1706 6.76693 47.8776 6.5651 47.5391 6.42188C47.2005 6.27865 46.8359 6.20703 46.4453 6.20703C46.0547 6.20703 45.6901 6.27865 45.3516 6.42188C45.013 6.5651 44.7135 6.76693 44.4531 7.02734C44.2057 7.27474 44.0104 7.56771 43.8672 7.90625C43.724 8.24479 43.6523 8.60938 43.6523 9V29H38.0469V9C38.0469 8.60938 37.9753 8.24479 37.832 7.90625C37.6888 7.56771 37.487 7.27474 37.2266 7.02734C36.9792 6.76693 36.6862 6.5651 36.3477 6.42188C36.0091 6.27865 35.6445 6.20703 35.2539 6.20703C34.8633 6.20703 34.4987 6.27865 34.1602 6.42188C33.8216 6.5651 33.5221 6.76693 33.2617 7.02734C33.0143 7.27474 32.819 7.56771 32.6758 7.90625C32.5326 8.24479 32.4609 8.60938 32.4609 9V29H26.8555V9C26.8555 7.84115 27.0703 6.75391 27.5 5.73828C27.9427 4.70964 28.5417 3.81771 29.2969 3.0625C30.0651 2.29427 30.957 1.69531 31.9727 1.26562C33.0013 0.822917 34.0951 0.601562 35.2539 0.601562C36.2956 0.601562 37.2982 0.790365 38.2617 1.16797C39.2253 1.53255 40.0911 2.06641 40.8594 2.76953C41.6276 2.06641 42.487 1.53255 43.4375 1.16797C44.401 0.790365 45.4036 0.601562 46.4453 0.601562C47.6042 0.601562 48.6914 0.822917 49.707 1.26562C50.7357 1.69531 51.6276 2.29427 52.3828 3.0625C53.151 3.81771 53.75 4.70964 54.1797 5.73828C54.6224 6.75391 54.8438 7.84115 54.8438 9V29ZM87.6562 29H82.0703V9C82.0703 8.60938 81.9922 8.24479 81.8359 7.90625C81.6927 7.56771 81.4909 7.27474 81.2305 7.02734C80.9831 6.76693 80.6901 6.5651 80.3516 6.42188C80.013 6.27865 79.6484 6.20703 79.2578 6.20703C78.8672 6.20703 78.5026 6.27865 78.1641 6.42188C77.8255 6.5651 77.526 6.76693 77.2656 7.02734C77.0182 7.27474 76.8229 7.56771 76.6797 7.90625C76.5365 8.24479 76.4648 8.60938 76.4648 9V29H70.8594V9C70.8594 8.60938 70.7878 8.24479 70.6445 7.90625C70.5013 7.56771 70.2995 7.27474 70.0391 7.02734C69.7917 6.76693 69.4987 6.5651 69.1602 6.42188C68.8216 6.27865 68.457 6.20703 68.0664 6.20703C67.6758 6.20703 67.3112 6.27865 66.9727 6.42188C66.6341 6.5651 66.3346 6.76693 66.0742 7.02734C65.8268 7.27474 65.6315 7.56771 65.4883 7.90625C65.3451 8.24479 65.2734 8.60938 65.2734 9V29H59.668V9C59.668 7.84115 59.8828 6.75391 60.3125 5.73828C60.7552 4.70964 61.3542 3.81771 62.1094 3.0625C62.8776 2.29427 63.7695 1.69531 64.7852 1.26562C65.8138 0.822917 66.9076 0.601562 68.0664 0.601562C69.1081 0.601562 70.1107 0.790365 71.0742 1.16797C72.0378 1.53255 72.9036 2.06641 73.6719 2.76953C74.4401 2.06641 75.2995 1.53255 76.25 1.16797C77.2135 0.790365 78.2161 0.601562 79.2578 0.601562C80.4167 0.601562 81.5039 0.822917 82.5195 1.26562C83.5482 1.69531 84.4401 2.29427 85.1953 3.0625C85.9635 3.81771 86.5625 4.70964 86.9922 5.73828C87.4349 6.75391 87.6562 7.84115 87.6562 9V29Z" fill="black"/>
<path d="M102.48 22.8477H97.1484V17.5156H91.6016V12.2031H97.1484V6.44141H102.48V12.2031H108.008V17.5156H102.48V22.8477Z" fill="#FF1C1C"/>
</svg>
