<svg width="60" height="60" viewBox="0 0 60 60" fill="none" xmlns="http://www.w3.org/2000/svg">
<g id="OK">
<path id="back" fill-rule="evenodd" clip-rule="evenodd" d="M0 30C0 13.4315 13.4315 0 30 0C46.5685 0 60 13.4315 60 30C60 46.5685 46.5685 60 30 60C13.4315 60 0 46.5685 0 30Z" fill="#F68634"/>
<path id="Shape" fill-rule="evenodd" clip-rule="evenodd" d="M33.3003 22.742C33.3003 20.9744 31.8108 19.5371 29.9796 19.5371C28.1499 19.5371 26.659 20.9744 26.659 22.742C26.659 24.5082 28.1499 25.9464 29.9796 25.9464C31.8108 25.9464 33.3003 24.5082 33.3003 22.742ZM37.9995 22.742C37.9995 27.0099 34.4035 30.4816 29.9796 30.4816C25.5568 30.4816 21.9597 27.0099 21.9597 22.742C21.9597 18.4726 25.5568 15 29.9796 15C34.4035 15 37.9995 18.4726 37.9995 22.742ZM37.902 34.9389C36.4519 35.818 34.8774 36.4415 33.245 36.8005L37.7283 41.1287C38.6467 42.0134 38.6467 43.4502 37.7283 44.3359C36.8108 45.2215 35.3237 45.2215 34.4072 44.3359L29.9992 40.0828L25.595 44.3359C25.1358 44.7782 24.534 44.9997 23.9323 44.9997C23.3315 44.9997 22.7307 44.7782 22.2715 44.3359C21.354 43.4502 21.354 42.0143 22.2705 41.1287L26.7544 36.8005C25.1219 36.4415 23.5475 35.8171 22.0973 34.9389C20.9999 34.2709 20.6702 32.8716 21.3617 31.8113C22.0513 30.7497 23.5014 30.4301 24.6008 31.098C27.884 33.0916 32.1134 33.0921 35.3986 31.098C36.4979 30.4301 37.9476 30.7497 38.6386 31.8113C39.3301 32.8707 38.9994 34.2709 37.902 34.9389Z" fill="white"/>
</g>
</svg>
