<svg width="60" height="60" viewBox="0 0 60 60" fill="none" xmlns="http://www.w3.org/2000/svg">
<g id="Telegram">
<path id="Oval" fill-rule="evenodd" clip-rule="evenodd" d="M30 60C46.5685 60 60 46.5685 60 30C60 13.4315 46.5685 0 30 0C13.4315 0 0 13.4315 0 30C0 46.5685 13.4315 60 30 60Z" fill="url(#paint0_linear_23_41)"/>
<path id="Shape" fill-rule="evenodd" clip-rule="evenodd" d="M24.5 43.75C23.5281 43.75 23.6933 43.383 23.3581 42.4576L20.5 33.0515L42.5 20" fill="#C8DAEA"/>
<path id="Shape_2" fill-rule="evenodd" clip-rule="evenodd" d="M24.5 43.7498C25.25 43.7498 25.5814 43.4068 26 42.9998L30 39.1103L25.0105 36.1016" fill="#A9C9DD"/>
<path id="Shape_3" fill-rule="evenodd" clip-rule="evenodd" d="M25.01 36.1024L37.1 45.0346C38.4796 45.7958 39.4754 45.4017 39.819 43.7537L44.7403 20.563C45.2441 18.5429 43.9702 17.6267 42.6504 18.2259L13.7529 29.3687C11.7804 30.1599 11.7919 31.2603 13.3934 31.7507L20.8091 34.0653L37.9774 23.234C38.7878 22.7425 39.5317 23.0068 38.9212 23.5486" fill="url(#paint1_linear_23_41)"/>
</g>
<defs>
<linearGradient id="paint0_linear_23_41" x1="22.503" y1="2.502" x2="7.503" y2="37.5" gradientUnits="userSpaceOnUse">
<stop stop-color="#37AEE2"/>
<stop offset="1" stop-color="#1E96C8"/>
</linearGradient>
<linearGradient id="paint1_linear_23_41" x1="26.2445" y1="31.8427" x2="29.45" y2="42.2113" gradientUnits="userSpaceOnUse">
<stop stop-color="#EFF7FC"/>
<stop offset="1" stop-color="white"/>
</linearGradient>
</defs>
</svg>
